<svg preserveAspectRatio="none" width="100%" height="100%" overflow="visible" style="display: block;" viewBox="0 0 16 16" fill="none" xmlns="http://www.w3.org/2000/svg">
<g id="Frame">
<path id="Vector" fill-rule="evenodd" clip-rule="evenodd" d="M2 8C2 7.80109 2.07902 7.61032 2.21967 7.46967C2.36032 7.32902 2.55109 7.25 2.75 7.25H11.44L8.22 4.03C8.08752 3.88783 8.0154 3.69978 8.01882 3.50548C8.02225 3.31118 8.10097 3.12579 8.23838 2.98838C8.37579 2.85097 8.56118 2.77225 8.75548 2.76883C8.94978 2.7654 9.13782 2.83752 9.28 2.97L13.78 7.47C13.9205 7.61063 13.9993 7.80125 13.9993 8C13.9993 8.19875 13.9205 8.38937 13.78 8.53L9.28 13.03C9.13782 13.1625 8.94978 13.2346 8.75548 13.2312C8.56118 13.2277 8.37579 13.149 8.23838 13.0116C8.10097 12.8742 8.02225 12.6888 8.01882 12.4945C8.0154 12.3002 8.08752 12.1122 8.22 11.97L11.44 8.75H2.75C2.55109 8.75 2.36032 8.67098 2.21967 8.53033C2.07902 8.38968 2 8.19891 2 8Z" fill="var(--fill-0, white)"/>
</g>
</svg>
