<svg preserveAspectRatio="none" width="100%" height="100%" overflow="visible" style="display: block;" viewBox="0 0 16 16" fill="none" xmlns="http://www.w3.org/2000/svg">
<g id="Frame">
<path id="Vector" fill-rule="evenodd" clip-rule="evenodd" d="M4.22 6.22C4.36063 6.07955 4.55125 6.00066 4.75 6.00066C4.94875 6.00066 5.13937 6.07955 5.28 6.22L8 8.94L10.72 6.22C10.7887 6.14631 10.8715 6.08721 10.9635 6.04622C11.0555 6.00523 11.1548 5.98319 11.2555 5.98141C11.3562 5.97963 11.4562 5.99816 11.5496 6.03588C11.643 6.0736 11.7278 6.12974 11.799 6.20096C11.8703 6.27218 11.9264 6.35701 11.9641 6.4504C12.0018 6.54379 12.0204 6.64382 12.0186 6.74452C12.0168 6.84523 11.9948 6.94454 11.9538 7.03654C11.9128 7.12854 11.8537 7.21134 11.78 7.28L8.53 10.53C8.38937 10.6705 8.19875 10.7493 8 10.7493C7.80125 10.7493 7.61063 10.6705 7.47 10.53L4.22 7.28C4.07955 7.13937 4.00066 6.94875 4.00066 6.75C4.00066 6.55125 4.07955 6.36063 4.22 6.22Z" fill="var(--fill-0, #374151)"/>
</g>
</svg>
