<svg preserveAspectRatio="none" width="100%" height="100%" overflow="visible" style="display: block;" viewBox="0 0 16 16" fill="none" xmlns="http://www.w3.org/2000/svg">
<g id="Frame">
<path id="Vector" fill-rule="evenodd" clip-rule="evenodd" d="M4.21934 6.22003C4.35997 6.07958 4.55059 6.00069 4.74934 6.00069C4.94809 6.00069 5.13871 6.07958 5.27934 6.22003L7.99934 8.94003L10.7193 6.22003C10.788 6.14634 10.8708 6.08724 10.9628 6.04625C11.0548 6.00526 11.1541 5.98322 11.2548 5.98144C11.3555 5.97966 11.4555 5.99819 11.5489 6.03591C11.6423 6.07363 11.7272 6.12977 11.7984 6.20099C11.8696 6.27221 11.9257 6.35705 11.9635 6.45043C12.0012 6.54382 12.0197 6.64385 12.0179 6.74455C12.0162 6.84526 11.9941 6.94457 11.9531 7.03657C11.9121 7.12857 11.853 7.21137 11.7793 7.28003L8.52934 10.53C8.38871 10.6705 8.19809 10.7494 7.99934 10.7494C7.80059 10.7494 7.60997 10.6705 7.46934 10.53L4.21934 7.28003C4.07889 7.13941 4 6.94878 4 6.75003C4 6.55128 4.07889 6.36066 4.21934 6.22003Z" fill="var(--fill-0, #6B7280)"/>
</g>
</svg>
